<svg xmlns="http://www.w3.org/2000/svg" width="25.299" height="19.211" viewBox="0 0 25.299 19.211">
  <path id="Path_16" data-name="Path 16" d="M1333.621,415.27l2.035-1.016c-.229-.5-.515-.431-.837-.294a15.035,15.035,0,0,1-6.251,1.217,15.228,15.228,0,0,1-5.6-1.186c-.32-.133-.638-.285-.932.26l2.057,1.018c-.411.664-.79,1.308-1.213,1.923a.563.563,0,0,1-.5.117,19.416,19.416,0,0,1-5.866-2.959.749.749,0,0,1-.226-.506,21.191,21.191,0,0,1,3.406-13.535,2.122,2.122,0,0,1,.96-.816c1.322-.468,2.678-.84,4.016-1.261a.643.643,0,0,1,.922.459c.19.586.5.752,1.177.715,1.536-.084,3.083.026,4.625.016a.79.79,0,0,0,.542-.4c.582-1.116.393-.957,1.475-.7a35.059,35.059,0,0,1,3.834,1.247,1.748,1.748,0,0,1,.759.7,21.367,21.367,0,0,1,3.514,12.215,2.545,2.545,0,0,1-1.516,2.683c-1.461.659-2.9,1.357-4.345,2.057a.718.718,0,0,1-1.1-.385C1334.285,416.32,1333.956,415.826,1333.621,415.27ZM1327,408.752a2.354,2.354,0,1,0-4.682-.028,2.539,2.539,0,0,0,2.332,2.614A2.509,2.509,0,0,0,1327,408.752Zm8.4-.274a2.3,2.3,0,0,0-4.591-.292,2.588,2.588,0,0,0,.985,2.7,1.981,1.981,0,0,0,2.238.21A2.666,2.666,0,0,0,1335.4,408.478Z" transform="translate(-1316.221 -398.139)" fill="#54a522"/>
</svg>
