<svg xmlns="http://www.w3.org/2000/svg" width="18.964" height="18.964" viewBox="0 0 18.964 18.964">
  <path id="Path_94271" data-name="Path 94271" d="M1282.928,1047.94q-1.913,0-3.826,0a5.527,5.527,0,0,1-5.578-4.664,5.626,5.626,0,0,1-.074-.965q-.009-3.852,0-7.7a5.526,5.526,0,0,1,4.688-5.557,5.624,5.624,0,0,1,.939-.068q3.852-.008,7.7,0a5.523,5.523,0,0,1,5.556,4.688,5.717,5.717,0,0,1,.07.965q.008,3.826,0,7.652a5.52,5.52,0,0,1-4.663,5.577,5.918,5.918,0,0,1-.991.075C1285.479,1047.945,1284.2,1047.94,1282.928,1047.94Zm-4.733-9.483a4.733,4.733,0,1,0,4.729-4.731A4.729,4.729,0,0,0,1278.195,1038.457Zm10.264-6.314a.789.789,0,1,0,.785.785A.8.8,0,0,0,1288.458,1032.142Z" transform="translate(-1273.446 -1028.977)" fill="#54a522"/>
</svg>
