<svg xmlns="http://www.w3.org/2000/svg" width="22.881" height="22.881" viewBox="0 0 22.881 22.881">
  <path id="Path_94274" data-name="Path 94274" d="M1801.5,242.765a11.441,11.441,0,1,0,11.44,11.441A11.441,11.441,0,0,0,1801.5,242.765Zm-5.8,11.825.049-.078,2.976-4.656a.1.1,0,0,1,.179.013,6.339,6.339,0,0,1,.725,3.363,5.254,5.254,0,0,1-.585,1.28c-.034.064-.072.128-.111.189a.1.1,0,0,1-.085.045h-3.061A.1.1,0,0,1,1795.7,254.59Zm13.266,1.6a.106.106,0,0,1-.063.1,3.661,3.661,0,0,0-1.347.917c-.837,1.165-1.476,2.83-2.906,2.83h-5.963a3.832,3.832,0,0,1-3.826-3.839v-.068a.1.1,0,0,1,.1-.1h3.324a.113.113,0,0,1,.109.126,1.131,1.131,0,0,0,.119.638,1.169,1.169,0,0,0,1.048.651h1.646v-1.285h-1.627a.1.1,0,0,1-.085-.164l.059-.087c.154-.218.374-.558.593-.945a7.358,7.358,0,0,0,.41-.819c.024-.05.043-.1.061-.153.032-.089.065-.173.088-.256s.042-.145.061-.214a3.31,3.31,0,0,0,.079-.75c0-.1,0-.209-.014-.311s-.019-.223-.033-.335-.027-.2-.046-.3c-.023-.149-.056-.3-.094-.447l-.013-.056c-.028-.1-.052-.2-.085-.3-.093-.321-.2-.633-.313-.926-.041-.116-.088-.228-.135-.34-.069-.168-.14-.321-.2-.466-.033-.066-.061-.126-.089-.187s-.065-.139-.1-.2c-.024-.051-.051-.1-.069-.145l-.2-.371a.066.066,0,0,1,.074-.1l1.257.341h.008l.166.046.182.052.067.019v-.748a.65.65,0,0,1,.646-.653.64.64,0,0,1,.458.191.658.658,0,0,1,.189.462v1.11l.134.038a.113.113,0,0,1,.031.015l.14.106c.047.038.1.084.159.13.121.1.266.223.424.368.042.036.084.074.121.112.2.19.434.414.652.661.061.069.121.14.182.214s.126.149.182.223c.074.1.154.2.223.308.033.051.07.1.1.153.089.135.168.275.243.415.032.065.065.135.093.2a2.991,2.991,0,0,1,.192.568.735.735,0,0,1,.027.126v.009a1.074,1.074,0,0,1,.023.177,1.9,1.9,0,0,1-.033.587,2.042,2.042,0,0,1-.069.246c-.028.08-.056.163-.093.242a3.33,3.33,0,0,1-.253.48c-.032.056-.069.116-.107.173s-.083.116-.121.172c-.052.07-.107.145-.163.21a2.4,2.4,0,0,1-.159.2c-.079.093-.154.181-.233.266-.047.055-.1.112-.149.162s-.1.107-.15.154c-.078.079-.145.14-.2.191l-.129.119a.106.106,0,0,1-.069.026h-1v1.285h1.26a1.178,1.178,0,0,0,.766-.283,9.2,9.2,0,0,0,.779-.766.1.1,0,0,1,.048-.03l3.48-1.006a.1.1,0,0,1,.13.1Z" transform="translate(-1790.059 -242.765)" fill="#54a522"/>
</svg>
