<svg xmlns="http://www.w3.org/2000/svg" width="23.669" height="18.964" viewBox="0 0 23.669 18.964">
  <path id="Path_94266" data-name="Path 94266" d="M671.548,85.126c-.511-.1-1.027-.16-1.522-.3a5.4,5.4,0,0,1-3.08-1.958c-.127-.174-.3-.365-.183-.592s.375-.165.589-.163c.795,0,1.59.014,2.385.01a.671.671,0,0,0,.361-.139c-.416-.142-.842-.261-1.246-.432a5.669,5.669,0,0,1-2.957-2.461,3.228,3.228,0,0,1-.29-.747.467.467,0,0,1,.084-.4.489.489,0,0,1,.415,0,3.418,3.418,0,0,0,1.454.356c.406-.009.811-.064,1.216-.1l-.005-.066c-.388-.255-.791-.491-1.161-.77a4.8,4.8,0,0,1-1.978-2.794,7,7,0,0,1,.1-2.847c.062-.319.356-.379.591-.132s.463.531.7.791a11.815,11.815,0,0,0,4.273,3.076,10.023,10.023,0,0,0,3.506.716c.214.006.251-.075.245-.263a5.43,5.43,0,0,1,1-3.437,5.322,5.322,0,0,1,7.887-.858.412.412,0,0,0,.494.09q1.214-.515,2.425-1.038c.246-.107.483-.234.726-.348.149-.07.308-.124.435.033s.059.3-.033.442a8.431,8.431,0,0,1-2.216,2.276c-.089.063-.177.127-.265.192-.011.008-.015.027-.055.105.37-.1.7-.176,1.016-.278.407-.129.805-.288,1.214-.412a1.035,1.035,0,0,1,.362.027c-.025.13-.009.3-.084.382a9.177,9.177,0,0,1-.844.861c-.4.355-.824.688-1.247,1.018a.379.379,0,0,0-.165.36,13.061,13.061,0,0,1-8.858,13.091,15.6,15.6,0,0,1-7.9.519,15.036,15.036,0,0,1-4.148-1.26.547.547,0,0,1-.368-.636c.034-.1.227-.183.357-.194.71-.058,1.426-.063,2.134-.139a9.989,9.989,0,0,0,4.291-1.319c.107-.066.207-.142.309-.216A.17.17,0,0,0,671.548,85.126Z" transform="translate(-664.409 -70.251)" fill="#54a522"/>
</svg>
