<svg xmlns="http://www.w3.org/2000/svg" width="21" height="21" viewBox="0 0 21 21">
  <g id="Icon_call_solid" transform="translate(0 0.001)">
    <path id="Shape" d="M10.5,21A10.5,10.5,0,1,1,21,10.5,10.512,10.512,0,0,1,10.5,21ZM7.064,5.25a1.078,1.078,0,0,0-.774.29A2.883,2.883,0,0,0,5.25,7.832c0,1.265.209,2.709,2.7,5.209,2.447,2.453,3.463,2.709,5.2,2.709a3.61,3.61,0,0,0,2.288-1.042,1.261,1.261,0,0,0,0-1.667l-1.248-1.25a1.263,1.263,0,0,0-1.663,0l-.832.833A4.477,4.477,0,0,1,8.369,9.29L9.2,8.457a1.261,1.261,0,0,0,0-1.667l-1.255-1.2A1.262,1.262,0,0,0,7.064,5.25Z" transform="translate(0 -0.001)" fill="#54a522"/>
  </g>
</svg>
