<svg xmlns="http://www.w3.org/2000/svg" width="54" height="54" viewBox="0 0 54 54">
  <g id="Group_382" data-name="Group 382" transform="translate(-1493 -256)">
    <g id="Icon_love_outline" transform="translate(1506.837 272.033)">
      <path id="Shape" d="M13,23a1.319,1.319,0,0,1-.925-.381L2.16,12.741A7.379,7.379,0,0,1,0,7.524,7.641,7.641,0,0,1,7.735,0a5.957,5.957,0,0,1,3.874,1.685A13.586,13.586,0,0,1,13,3.111a13.593,13.593,0,0,1,1.391-1.426A5.957,5.957,0,0,1,18.265,0,7.641,7.641,0,0,1,26,7.524a7.366,7.366,0,0,1-2.346,5.4l-9.729,9.7A1.3,1.3,0,0,1,13,23ZM7.735,2.555A5.06,5.06,0,0,0,2.6,7.524a4.868,4.868,0,0,0,1.422,3.433L13,19.9l8.816-8.787a.289.289,0,0,1,.027-.026A4.854,4.854,0,0,0,23.4,7.524a5.06,5.06,0,0,0-5.135-4.969A3.492,3.492,0,0,0,16.116,3.6a13.838,13.838,0,0,0-2.057,2.353,1.314,1.314,0,0,1-2.118,0A13.88,13.88,0,0,0,9.885,3.6,3.493,3.493,0,0,0,7.735,2.555Z" transform="translate(0.162 -0.033)" fill="#54a522"/>
    </g>
    <g id="Ellipse_460" data-name="Ellipse 460" transform="translate(1493 256)" fill="none" stroke="#707070" stroke-width="1">
      <circle cx="27" cy="27" r="27" stroke="none"/>
      <circle cx="27" cy="27" r="26.5" fill="none"/>
    </g>
  </g>
</svg>
