<svg xmlns="http://www.w3.org/2000/svg" width="29" height="20" viewBox="0 0 29 20">
  <g id="Icon_mail_solid" transform="translate(0 -0.295)">
    <path id="Shape" d="M24.65,20H4.35A4.323,4.323,0,0,1,0,15.714V4.285A4.323,4.323,0,0,1,4.35,0h20.3A4.323,4.323,0,0,1,29,4.285V15.714A4.323,4.323,0,0,1,24.65,20ZM4.351,2.857a1.456,1.456,0,0,0-1.259.72,1.4,1.4,0,0,0-.14,1.085,1.42,1.42,0,0,0,.679.864l10.15,5.714a1.462,1.462,0,0,0,1.438,0l10.15-5.714a1.421,1.421,0,0,0,.68-.864,1.4,1.4,0,0,0-.139-1.085,1.462,1.462,0,0,0-1.978-.531L14.5,8.354,5.07,3.046A1.467,1.467,0,0,0,4.351,2.857Z" transform="translate(0 0.295)" fill="#54a522"/>
  </g>
</svg>
