<svg xmlns="http://www.w3.org/2000/svg" width="71" height="71" viewBox="0 0 71 71">
  <g id="Group_197" data-name="Group 197" transform="translate(-1541 -3243)">
    <circle id="Ellipse_457" data-name="Ellipse 457" cx="35.5" cy="35.5" r="35.5" transform="translate(1541 3243)" fill="#d50000" opacity="0.26"/>
    <path id="Path_94293" data-name="Path 94293" d="M327.41,229.311v-4.754h-4.184v6.733c0,.467-.009.935,0,1.4.017.685-.049,1.371.019,2.058.019.2.047.39.085.583a7.475,7.475,0,0,0,3.47,4.835,10.468,10.468,0,0,0,5.459,1.165c2.544,0,5.076-.092,7.619-.092h.045v-7.69a28.374,28.374,0,0,0-.03-3.008,5.458,5.458,0,0,0-2.051-3.885h5.333c.358,0,.737,1.052.815,1.274a14.483,14.483,0,0,1,.432,4.876q0,1.822,0,3.645,0,3.592-.007,7.184c0,.094,0,1.8,0,1.8h-7.988c-1.906,0-3.819.046-5.723.018a11.925,11.925,0,0,1-5.577-1.358,11.031,11.031,0,0,1-3.651-3.175,12.561,12.561,0,0,1-1.442-2.559,12.812,12.812,0,0,1-1.006-3.815c-.124-1.369-.022-2.78-.01-4.154.011-1.28.025-2.56.034-3.84l.04-5.4.006-.812h13.718v8.952Z" transform="translate(1244.176 3045.623)" fill="#d50000"/>
  </g>
</svg>
