<svg xmlns="http://www.w3.org/2000/svg" width="54" height="54" viewBox="0 0 54 54">
  <g id="Group_381" data-name="Group 381" transform="translate(-1394 -256)">
    <g id="Icon_share_ouline" transform="translate(1408.92 272)">
      <path id="Shape" d="M18.118,23A3.87,3.87,0,0,1,14.3,19.87L6.477,14.352a3.906,3.906,0,0,1-2.595.981A3.833,3.833,0,1,1,6.543,8.709l7.727-4.36a3.777,3.777,0,0,1-.035-.516,3.883,3.883,0,0,1,7.765,0,3.893,3.893,0,0,1-6.544,2.791L7.73,10.984a4,4,0,0,1,.035.516,3.912,3.912,0,0,1-.045.588l7.121,5.023A3.866,3.866,0,1,1,18.118,23Zm0-5.111a1.29,1.29,0,0,0-1.3,1.267.062.062,0,0,1,0,.021,1.295,1.295,0,1,0,1.3-1.288ZM3.882,10.222A1.278,1.278,0,1,0,5.176,11.5,1.287,1.287,0,0,0,3.882,10.222ZM18.118,2.555a1.278,1.278,0,1,0,1.294,1.278A1.288,1.288,0,0,0,18.118,2.555Z" transform="translate(0.08 0)" fill="#54a522"/>
    </g>
    <g id="Ellipse_461" data-name="Ellipse 461" transform="translate(1394 256)" fill="none" stroke="#707070" stroke-width="1">
      <circle cx="27" cy="27" r="27" stroke="none"/>
      <circle cx="27" cy="27" r="26.5" fill="none"/>
    </g>
  </g>
</svg>
